<?xml version="1.0" encoding="UTF-8"?><svg id="Layer_2" xmlns="http://www.w3.org/2000/svg" viewBox="0 0 114.5 228.51"><defs><style>.cls-1{fill:#373f51;}.cls-2{fill:#58a4b0;stroke-width:.25px;}.cls-2,.cls-3{stroke:#1b1b1e;stroke-miterlimit:10;}.cls-3{fill:none;stroke-width:.5px;}</style></defs><g id="Layer_1-2"><g><g><path class="cls-1" d="M.25,.25V228.26H106.14c4.48,0,8.11-3.62,8.11-8.09V8.32c0-4.46-3.62-8.07-8.09-8.07H.25Z"/><path class="cls-2" d="M114.25,7.74c-.59-1.48-1.18-2.97-1.77-4.45-14.22,18-30.38,36.95-48.69,56.31-20.21,21.39-40.09,40.17-58.92,56.57,16.86,13.92,34.65,29.83,52.78,47.94,21.1,21.07,39.28,41.75,54.84,61.12,.47-.98,.94-1.96,1.41-2.94,.12-71.52,.23-143.05,.35-214.57Z"/></g><path class="cls-3" d="M114.25,8.24V220.27c0,4.41-3.58,7.99-7.99,7.99H.25V.25H106.26c4.41,0,7.99,3.58,7.99,7.99Z"/></g></g></svg>