<?xml version="1.0" encoding="UTF-8"?><svg id="Layer_2" xmlns="http://www.w3.org/2000/svg" viewBox="0 0 114.5 228.51"><defs><style>.cls-1{fill:#373f51;}.cls-2{fill:#58a4b0;stroke-width:.25px;}.cls-2,.cls-3{stroke:#1b1b1e;stroke-miterlimit:10;}.cls-3{fill:none;stroke-width:.5px;}</style></defs><g id="Layer_1-2"><g><g><path class="cls-1" d="M.25,8.32V220.18c0,4.46,3.62,8.07,8.09,8.07H114.25V.25H8.34C3.87,.25,.25,3.87,.25,8.32Z"/><path class="cls-2" d="M114.25,.5c-6.23,8.17-14.09,18.11-23.5,29.17-3,3.53-12.92,15.08-26.97,29.93-19.95,21.08-39.85,39.91-58.92,56.57,16.85,13.85,34.65,29.76,52.78,47.94,22.01,22.07,40.75,43.72,56.6,63.89,0-75.84,0-151.67,0-227.51Z"/></g><path class="cls-3" d="M.25,8.24V220.27c0,4.41,3.58,7.99,7.99,7.99H114.25s0-228.01,0-228.01H8.24c-4.41,0-7.99,3.58-7.99,7.99Z"/></g></g></svg>